<svg width="42" height="43" viewBox="0 0 42 43" fill="none" xmlns="http://www.w3.org/2000/svg">
<path fill-rule="evenodd" clip-rule="evenodd" d="M21.2312 19.421C21.4727 19.841 21.92 20.0993 22.4051 20.0993H30.8828C31.2461 20.0993 31.5863 19.9523 31.8362 19.7045C30.9962 14.4797 26.4665 10.4876 21.0044 10.4876C19.5218 10.4876 18.1064 10.7816 16.817 11.315C16.8002 11.5775 16.8569 11.8442 16.9913 12.0794L21.2333 19.421H21.2312ZM22.403 22.7621C21.92 22.7621 21.4748 23.0204 21.2312 23.4383L16.9934 30.782C16.8464 31.034 16.7897 31.3217 16.8212 31.6031C18.1106 32.1365 19.5218 32.4305 21.0044 32.4305C26.4854 32.4305 31.0256 28.4153 31.8446 23.1653C31.5926 22.9133 31.2482 22.7621 30.8828 22.7621H22.403V22.7621ZM19.0682 20.7545L14.8304 13.4108C14.6834 13.1588 14.4608 12.9656 14.2004 12.8501C11.6636 14.8598 10.0319 17.9699 10.0319 21.4601C10.0319 24.9272 11.6426 28.0184 14.1542 30.0302C14.4335 29.9189 14.675 29.7194 14.8304 29.4506L19.0682 22.1069C19.3118 21.6869 19.3118 21.1724 19.0682 20.7545" fill="#53565C"/>
<mask id="mask0_17_258" style="mask-type:alpha" maskUnits="userSpaceOnUse" x="0" y="0" width="43" height="43">
<path d="M0.00012207 0.5H42.0001V42.5H0.00012207V0.5Z" fill="white"/>
</mask>
<g mask="url(#mask0_17_258)">
<path fill-rule="evenodd" clip-rule="evenodd" d="M37.7245 24.6752L34.4464 24.6122C34.2742 25.3472 34.0432 26.0591 33.7597 26.7416L36.6451 28.6715C36.7081 28.703 36.7333 28.7828 36.6997 28.8458L35.9521 30.2906C35.9185 30.3536 35.8408 30.3809 35.7778 30.3473L32.506 29.0915C32.107 29.6942 31.6618 30.2612 31.1746 30.7925L33.2536 33.3923C33.3019 33.4427 33.3019 33.5246 33.2536 33.5771L32.1028 34.7279C32.0503 34.7783 31.9684 34.7783 31.918 34.7279L29.2069 32.5628C28.6483 32.9744 28.0582 33.3461 27.4387 33.6737L28.4131 37.0127C28.4404 37.0778 28.4089 37.1555 28.3417 37.1828L26.8402 37.8086C26.7751 37.8359 26.6974 37.8044 26.6701 37.7393L24.9754 34.6817C24.3034 34.8833 23.6083 35.0366 22.8964 35.1332L22.5247 38.6255C22.5247 38.6969 22.4659 38.7578 22.3945 38.7578L20.767 38.7662C20.6956 38.7662 20.6368 38.7074 20.6368 38.636L20.2378 35.2424C19.4419 35.1962 18.6649 35.087 17.911 34.9148L16.7203 37.9976C16.7035 38.069 16.6321 38.111 16.5607 38.0921L14.9878 37.6784C14.9185 37.6595 14.8765 37.5881 14.8954 37.5188L15.3994 34.0748C14.7757 33.7976 14.1751 33.4763 13.6039 33.113L11.3548 35.6456C11.3128 35.7023 11.233 35.717 11.1742 35.675L9.84492 34.7363C9.78612 34.6943 9.77352 34.6124 9.81342 34.5557L11.5102 31.4771C10.9915 30.9878 10.5127 30.4565 10.0759 29.8916L7.19472 31.4666C7.13592 31.5086 7.05402 31.4939 7.01412 31.4351L6.07752 30.1037C6.03552 30.0449 6.05232 29.963 6.11112 29.921L8.67102 27.6614C8.35392 27.0314 8.08302 26.372 7.86252 25.6916L4.48992 25.9856C4.42062 26.0003 4.35132 25.9541 4.33872 25.8848L4.01742 24.2888C4.00272 24.2174 4.04892 24.1502 4.12032 24.1355L7.29972 23.117C7.23672 22.5752 7.20102 22.0208 7.20102 21.458C7.20102 21.2774 7.20522 21.0989 7.21362 20.9204L4.03002 20.0762C3.96072 20.0678 3.91032 20.0006 3.92082 19.9292L4.16022 18.3206C4.17072 18.2492 4.23792 18.1988 4.30722 18.2093L7.56012 18.329C7.74072 17.5541 7.98432 16.8065 8.28882 16.0862L5.36352 14.4062C5.29842 14.3789 5.26692 14.3012 5.29422 14.2361L5.94522 12.7451C5.97042 12.6779 6.05022 12.6485 6.11322 12.6758L9.56562 13.7384C9.94782 13.1714 10.372 12.6338 10.834 12.1319L8.71302 9.3977C8.66262 9.3473 8.66262 9.2633 8.71302 9.2129L9.88272 8.0789C9.93312 8.0285 10.015 8.0306 10.0654 8.081L12.8206 10.3469C13.3834 9.9311 13.9819 9.5573 14.6056 9.2297L13.669 5.9453C13.6417 5.8781 13.6732 5.8025 13.7404 5.7752L15.2461 5.1578C15.3112 5.1305 15.3889 5.162 15.4141 5.2292L17.0584 8.2322C17.7178 8.0348 18.394 7.8878 19.0912 7.7912L19.4734 4.3682C19.4734 4.2947 19.5322 4.2359 19.6036 4.2359H21.2311C21.3025 4.2359 21.3613 4.2947 21.3613 4.3661L21.7309 7.6778C22.5205 7.7198 23.2933 7.8248 24.0451 7.9949L25.2232 4.9058C25.2421 4.8365 25.3135 4.7945 25.3828 4.8134L26.9578 5.2208C27.0271 5.2376 27.0691 5.309 27.0502 5.3783L26.5588 8.8223C27.1636 9.0869 27.7432 9.3956 28.2997 9.7421L30.8491 7.3229C30.8953 7.2683 30.9772 7.2599 31.0318 7.3082L32.2771 8.3582C32.3317 8.4023 32.338 8.4863 32.2918 8.5409L30.4081 11.3549C30.9646 11.8736 31.4791 12.4364 31.9411 13.0391L34.9987 11.4935C35.0596 11.4557 35.1394 11.4725 35.1793 11.5313L36.0697 12.8942C36.1096 12.953 36.0907 13.0349 36.0319 13.0727L33.3523 15.284C33.6631 15.9056 33.9298 16.5566 34.1461 17.2307L37.5145 16.9283C37.5859 16.9136 37.6531 16.9598 37.6678 17.0291L37.9933 18.6251C38.0059 18.6944 37.9618 18.7637 37.8904 18.7784L34.7089 19.8032C34.7719 20.3492 34.8076 20.8994 34.8076 21.4601C34.8076 21.6491 34.8034 21.836 34.7971 22.0229L37.9681 22.802C38.0395 22.8104 38.0899 22.8776 38.0794 22.949L37.8694 24.5618C37.8589 24.6332 37.7938 24.6836 37.7224 24.6752H37.7245ZM21.0001 0.5C9.40182 0.5 0.00012207 9.9017 0.00012207 21.5C0.00012207 33.0983 9.40182 42.5 21.0001 42.5C32.5984 42.5 42.0001 33.0983 42.0001 21.5C42.0001 9.9017 32.5984 0.5 21.0001 0.5Z" fill="#53565C"/>
</g>
</svg>
