<svg width="34" height="33" viewBox="0 0 34 33" fill="none" xmlns="http://www.w3.org/2000/svg">
<path d="M17.5 2.9375C19.2811 2.9375 21.0447 3.2883 22.6901 3.96988C24.3356 4.65146 25.8307 5.65047 27.0901 6.90986C28.3495 8.16926 29.3485 9.66438 30.0301 11.3099C30.7117 12.9553 31.0625 14.7189 31.0625 16.5C31.0625 18.2811 30.7117 20.0447 30.0301 21.6901C29.3485 23.3356 28.3495 24.8307 27.0901 26.0901C25.8307 27.3495 24.3356 28.3485 22.6901 29.0301C21.0447 29.7117 19.2811 30.0625 17.5 30.0625V2.9375ZM17.5 1C13.3891 1 9.44666 2.63303 6.53985 5.53985C3.63303 8.44666 2 12.3891 2 16.5C2 20.6109 3.63303 24.5533 6.53985 27.4602C9.44666 30.367 13.3891 32 17.5 32C21.6109 32 25.5533 30.367 28.4602 27.4602C31.367 24.5533 33 20.6109 33 16.5C33 12.3891 31.367 8.44666 28.4602 5.53985C25.5533 2.63303 21.6109 1 17.5 1V1Z" fill="#53565C"/>
</svg>
