<svg width="35" height="25" viewBox="0 0 35 25" fill="none" xmlns="http://www.w3.org/2000/svg">
<path d="M10.6313 14.7217C12.3631 14.7217 13.229 14.5565 13.229 14.2261V14.1235C13.229 14.0096 13.1549 13.6792 13.0068 13.1323C12.8701 12.5741 12.7904 12.2493 12.7676 12.1582C12.7448 12.0557 12.7163 11.9588 12.6821 11.8677C12.6479 11.7651 12.4771 11.0701 12.1694 9.78271C11.8732 8.48389 11.4858 7.2762 11.0073 6.15967C10.5288 5.04313 10.2554 4.48486 10.187 4.48486C10.1187 4.48486 9.91927 4.89502 9.58887 5.71533C7.6748 10.5005 6.71777 13.3317 6.71777 14.209V14.3115C6.71777 14.585 7.30452 14.7217 8.47803 14.7217H9.62305L9.77686 14.7046L10.3408 14.7217H10.6313ZM20.0991 21.5405V21.8823C20.0991 22.5317 19.8257 23.1185 19.2788 23.6426C18.9826 23.9274 18.4357 24.0698 17.6382 24.0698C16.8521 24.0698 16.2938 23.859 15.9634 23.4375C15.9292 23.3919 15.707 22.6172 15.2969 21.1133C14.8981 19.6094 14.4424 18.5726 13.9297 18.0029C13.4284 17.4219 12.4429 17.1313 10.9731 17.1313C8.17041 17.1313 6.5013 17.3763 5.96582 17.8662C5.44173 18.3447 4.93473 19.3644 4.44482 20.9253C4.26253 21.495 4.13721 22.0418 4.06885 22.5659C4.00049 23.09 3.91504 23.4261 3.8125 23.5742C3.60742 23.8818 3.20296 24.0356 2.59912 24.0356C2.00667 24.0356 1.53385 23.7907 1.18066 23.3008C0.827474 22.7995 0.650879 22.2469 0.650879 21.6431C0.650879 21.0278 0.855957 20.4183 1.26611 19.8145C1.68766 19.1992 1.98958 18.6523 2.17188 18.1738C2.36556 17.6839 3.19727 15.2743 4.66699 10.9448C6.14811 6.6154 7.13932 3.9152 7.64062 2.84424C8.15332 1.77327 8.59766 1.09538 8.97363 0.810547C9.361 0.514323 9.83382 0.366211 10.3921 0.366211C10.9504 0.366211 11.4574 0.565592 11.9131 0.964355C12.3688 1.36312 12.8587 2.12646 13.3828 3.25439C13.3942 3.28857 15.1715 8.30159 18.7148 18.2935C18.9085 18.8403 19.1877 19.41 19.5522 20.0024C19.9168 20.5949 20.0991 21.1076 20.0991 21.5405Z" fill="#53565C"/>
<path d="M26.3526 22.3267H26.8824C27.942 22.3267 28.8762 21.8709 29.6852 20.9595C30.1295 20.4582 30.3517 19.5239 30.3517 18.1567L30.3687 17.9346V17.5073C30.3687 16.6528 30.0156 16.2256 29.3092 16.2256H28.7623L27.8736 16.2939L27.4122 16.3452C26.364 16.3452 25.5038 16.6414 24.8316 17.2339C24.1594 17.8149 23.8233 18.5099 23.8233 19.3188V19.917C23.8233 20.5322 24.0398 21.0905 24.4728 21.5918C24.9171 22.0817 25.5437 22.3267 26.3526 22.3267ZM35.0001 23.147C35.0001 23.9103 34.2311 24.292 32.693 24.292C32.4195 24.292 31.9182 24.1553 31.1891 23.8818C30.4713 23.597 30.0156 23.4546 29.8219 23.4546C29.6396 23.4546 29.0243 23.654 27.9762 24.0527C26.928 24.4401 26.0051 24.6338 25.2076 24.6338H24.8146C23.5727 24.6338 22.5017 24.2293 21.6017 23.4204C20.7016 22.6001 20.2516 21.4836 20.2516 20.0708C20.2516 17.1997 22.0688 15.411 25.7032 14.7046C28.0616 14.2375 29.2807 13.9868 29.3604 13.9526C29.9187 13.6678 30.1979 13.1551 30.1979 12.4146C30.1979 11.6626 29.9586 11.036 29.4801 10.5347C29.013 10.022 28.3692 9.76562 27.5489 9.76562C26.74 9.76562 25.783 10.0448 24.6778 10.603C23.5727 11.1499 22.815 11.4233 22.4049 11.4233C21.6643 11.4233 21.294 10.9163 21.294 9.90234C21.294 9.26432 21.8751 8.66048 23.0372 8.09082C24.2107 7.52116 25.5437 7.23633 27.0362 7.23633H27.8907C29.0073 7.23633 29.9985 7.4471 30.8644 7.86865C31.7302 8.2902 32.391 8.85986 32.8468 9.57764C33.4962 10.5916 33.8209 12.9102 33.8209 16.5332C33.8209 18.584 33.8608 19.86 33.9405 20.3613C34.0317 20.8626 34.2311 21.3696 34.5387 21.8823C34.8463 22.3836 35.0001 22.8052 35.0001 23.147Z" fill="#53565C"/>
</svg>
